<?xml version="1.0" encoding="utf-8"?>
<!-- Generator: Adobe Illustrator 16.0.0, SVG Export Plug-In . SVG Version: 6.00 Build 0)  -->
<!DOCTYPE svg PUBLIC "-//W3C//DTD SVG 1.1//EN" "http://www.w3.org/Graphics/SVG/1.1/DTD/svg11.dtd">
<svg version="1.1" id="Layer_1" xmlns="http://www.w3.org/2000/svg" xmlns:xlink="http://www.w3.org/1999/xlink" x="0px" y="0px"
	 width="200px" height="200px" viewBox="0 0 200 200" enable-background="new 0 0 200 200" xml:space="preserve">
<path fill-rule="evenodd" clip-rule="evenodd" fill="#FFFFFF" d="M100.081,200.004C45.069,200.057,0.012,155.063,0,100.067
	C-0.012,44.465,44.818,0.025,100.948-0.004C155.801-0.033,199.979,45.075,200,101.132
	C200.02,155.149,154.741,199.953,100.081,200.004z M82.532,99.609c0,20.765,0,40.965,0,61.087c8.51,0,16.467,0,24.805,0
	c0-20.442,0-40.552,0-61.102c6.314,0,12.25,0,18.46,0c0.621-6.315,1.2-12.212,1.835-18.663c-7.108,0-13.671,0-20.481,0
	c0-4.581-0.012-8.656,0.002-12.73c0.025-7.129,2.653-9.614,9.895-9.108c3.261,0.228,6.498,0.794,10.052,1.246
	c1.057-6.441,2.057-12.536,3.087-18.816c-8.839-2.312-17.389-3.308-26.077-1.87c-14.152,2.341-19.462,7.871-21.259,21.901
	c-0.178,1.389-0.231,2.801-0.239,4.204c-0.028,4.912-0.011,9.824-0.011,15.068c-4.413,0-8.203,0-12.381,0c0,6.385,0,12.423,0,18.783
	C74.116,99.609,77.917,99.609,82.532,99.609z"/>
</svg>
