<?xml version="1.0" encoding="utf-8"?>
<!-- Generator: Adobe Illustrator 16.0.0, SVG Export Plug-In . SVG Version: 6.00 Build 0)  -->
<!DOCTYPE svg PUBLIC "-//W3C//DTD SVG 1.1//EN" "http://www.w3.org/Graphics/SVG/1.1/DTD/svg11.dtd">
<svg version="1.1" id="Layer_1" xmlns="http://www.w3.org/2000/svg" xmlns:xlink="http://www.w3.org/1999/xlink" x="0px" y="0px"
	 width="200px" height="200px" viewBox="0 0 200 200" enable-background="new 0 0 200 200" xml:space="preserve">
<path fill-rule="evenodd" clip-rule="evenodd" fill="#FFFFFF" d="M100.381,0.062c54.566-0.048,99.57,44.726,99.619,99.111
	c0.051,55.769-44.418,100.785-99.542,100.766C45.062,199.92,0.107,155.373,0.001,100.388C-0.108,44.852,44.657,0.111,100.381,0.062z
	 M91.164,120.702c7.542,9.562,16.947,11.538,27.108,9.228c5.32-1.21,10.691-3.683,15.171-6.824
	c12.725-8.918,17.547-22.388,19.565-37.126c3.553-25.943-10.19-46.986-35.622-53.36c-19.858-4.976-38.273-0.581-53.88,12.468
	C49.91,56.455,44.53,71.705,47.448,89.33c1.496,9.038,5.767,16.641,14.533,20.794c1.009,0.478,2.627,0.799,3.452,0.317
	c2.346-1.369,3.433-10.257,1.682-12.585c-4.928-6.551-6.09-13.936-4.726-21.785c4.442-25.568,29.942-37.265,52.246-29.689
	c11.107,3.773,18.378,11.457,19.181,23.379c0.507,7.531-0.186,15.322-1.594,22.76c-1.645,8.68-6.087,16.206-13.375,21.693
	c-5.261,3.96-12.599,4.157-17.912,0.471c-4.397-3.051-5.798-8.471-3.907-15.113c1.745-6.129,3.634-12.225,5.172-18.406
	c0.73-2.934,1.225-6.056,1.071-9.053c-0.356-6.937-6.04-11.616-12.528-9.993c-2.89,0.724-5.837,2.724-7.906,4.94
	c-6.242,6.684-5.957,14.99-4.107,23.119c0.887,3.9,0.898,7.434-0.037,11.2c-1.966,7.917-3.679,15.898-5.694,23.803
	c-3.007,11.788-5.604,23.6-4.115,35.892c0.321,2.651,0.657,5.3,1.078,8.69C83.156,155.568,87.556,138.728,91.164,120.702z"/>
</svg>
