<?xml version="1.0" encoding="utf-8"?>
<!-- Generator: Adobe Illustrator 16.0.0, SVG Export Plug-In . SVG Version: 6.00 Build 0)  -->
<!DOCTYPE svg PUBLIC "-//W3C//DTD SVG 1.1//EN" "http://www.w3.org/Graphics/SVG/1.1/DTD/svg11.dtd">
<svg version="1.1" id="Layer_1" xmlns="http://www.w3.org/2000/svg" xmlns:xlink="http://www.w3.org/1999/xlink" x="0px" y="0px"
	 width="512px" height="512px" viewBox="0 0 512 512" enable-background="new 0 0 512 512" xml:space="preserve">
<g>
	<path fill="none" stroke="#FF0000" stroke-width="6.25" d="M373.096,386.055"/>
	<path fill="none" stroke="#000000" stroke-width="18.75" d="M256,256"/>
	<path fill="none" stroke="#000000" stroke-width="3.125" d="M256,6c138.068,0,250,111.931,250,250c0,138.068-111.932,250-250,250
		C117.931,506,6,394.068,6,256C6,117.931,117.931,6,256,6z"/>
	<text transform="matrix(1 0 0 1 341.0586 93.6191)" font-family="'Arial-BoldMT'" font-size="31.25">1</text>
	<line fill="none" stroke="#000000" stroke-width="3.125" x1="365.375" y1="66.557" x2="381" y2="39.495"/>
	<line fill="none" stroke="#000000" stroke-width="3.125" x1="393.764" y1="66.389" x2="402.946" y2="53.743"/>
	<line fill="none" stroke="#000000" stroke-width="3.125" x1="412.829" y1="81.823" x2="423.277" y2="70.214"/>
	<line fill="none" stroke="#000000" stroke-width="3.125" x1="430.171" y1="99.17" x2="441.793" y2="88.716"/>
	<line fill="none" stroke="#000000" stroke-width="3.125" x1="445.617" y1="118.236" x2="458.256" y2="109.054"/>
	<text transform="matrix(1 0 0 1 409.6875 162.249)" font-family="'Arial-BoldMT'" font-size="31.25">2</text>
	<line fill="none" stroke="#000000" stroke-width="3.125" x1="445.442" y1="146.625" x2="472.512" y2="131"/>
	<line fill="none" stroke="#000000" stroke-width="3.125" x1="470.119" y1="160.668" x2="484.383" y2="154.313"/>
	<line fill="none" stroke="#000000" stroke-width="3.125" x1="478.91" y1="183.576" x2="493.764" y2="178.743"/>
	<line fill="none" stroke="#000000" stroke-width="3.125" x1="485.246" y1="207.273" x2="500.535" y2="204.023"/>
	<line fill="none" stroke="#000000" stroke-width="3.125" x1="489.096" y1="231.499" x2="504.632" y2="229.868"/>
	<text transform="matrix(1 0 0 1 434.8086 255.999)" font-family="'Arial-BoldMT'" font-size="31.25">3</text>
	<line fill="none" stroke="#000000" stroke-width="3.125" x1="474.75" y1="256" x2="506" y2="256"/>
	<line fill="none" stroke="#000000" stroke-width="3.125" x1="489.096" y1="280.502" x2="504.632" y2="282.127"/>
	<line fill="none" stroke="#000000" stroke-width="3.125" x1="485.246" y1="304.727" x2="500.535" y2="307.982"/>
	<line fill="none" stroke="#000000" stroke-width="3.125" x1="478.91" y1="328.43" x2="493.764" y2="333.258"/>
	<line fill="none" stroke="#000000" stroke-width="3.125" x1="470.119" y1="351.332" x2="484.383" y2="357.688"/>
	<text transform="matrix(1 0 0 1 409.6875 349.751)" font-family="'Arial-BoldMT'" font-size="31.25">4</text>
	<line fill="none" stroke="#000000" stroke-width="3.125" x1="445.442" y1="365.375" x2="472.512" y2="381"/>
	<line fill="none" stroke="#000000" stroke-width="3.125" x1="445.617" y1="393.764" x2="458.256" y2="402.946"/>
	<line fill="none" stroke="#000000" stroke-width="3.125" x1="430.171" y1="412.829" x2="441.793" y2="423.277"/>
	<line fill="none" stroke="#000000" stroke-width="3.125" x1="412.829" y1="430.171" x2="423.277" y2="441.793"/>
	<line fill="none" stroke="#000000" stroke-width="3.125" x1="393.764" y1="445.617" x2="402.946" y2="458.258"/>
	<text transform="matrix(1 0 0 1 341.0586 418.376)" font-family="'Arial-BoldMT'" font-size="31.25">5</text>
	<line fill="none" stroke="#000000" stroke-width="3.125" x1="365.375" y1="445.443" x2="381" y2="472.512"/>
	<line fill="none" stroke="#000000" stroke-width="3.125" x1="351.332" y1="470.117" x2="357.688" y2="484.385"/>
	<line fill="none" stroke="#000000" stroke-width="3.125" x1="328.43" y1="478.91" x2="333.258" y2="493.764"/>
	<line fill="none" stroke="#000000" stroke-width="3.125" x1="304.727" y1="485.248" x2="307.982" y2="500.535"/>
	<line fill="none" stroke="#000000" stroke-width="3.125" x1="280.502" y1="489.095" x2="282.127" y2="504.632"/>
	<text transform="matrix(1 0 0 1 247.313 443.501)" font-family="'Arial-BoldMT'" font-size="31.25">6</text>
	<line fill="none" stroke="#000000" stroke-width="3.125" x1="256" y1="474.75" x2="256" y2="506"/>
	<line fill="none" stroke="#000000" stroke-width="3.125" x1="231.499" y1="489.095" x2="229.868" y2="504.632"/>
	<line fill="none" stroke="#000000" stroke-width="3.125" x1="207.273" y1="485.248" x2="204.023" y2="500.535"/>
	<line fill="none" stroke="#000000" stroke-width="3.125" x1="183.576" y1="478.91" x2="178.743" y2="493.764"/>
	<line fill="none" stroke="#000000" stroke-width="3.125" x1="160.668" y1="470.117" x2="154.313" y2="484.385"/>
	<text transform="matrix(1 0 0 1 153.5625 418.376)" font-family="'Arial-BoldMT'" font-size="31.25">7</text>
	<line fill="none" stroke="#000000" stroke-width="3.125" x1="146.625" y1="445.443" x2="131" y2="472.512"/>
	<line fill="none" stroke="#000000" stroke-width="3.125" x1="118.236" y1="445.617" x2="109.055" y2="458.258"/>
	<line fill="none" stroke="#000000" stroke-width="3.125" x1="99.17" y1="430.171" x2="88.716" y2="441.793"/>
	<line fill="none" stroke="#000000" stroke-width="3.125" x1="81.823" y1="412.829" x2="70.214" y2="423.277"/>
	<line fill="none" stroke="#000000" stroke-width="3.125" x1="66.389" y1="393.764" x2="53.743" y2="402.946"/>
	<text transform="matrix(1 0 0 1 84.9326 349.751)" font-family="'Arial-BoldMT'" font-size="31.25">8</text>
	<line fill="none" stroke="#000000" stroke-width="3.125" x1="66.557" y1="365.375" x2="39.495" y2="381"/>
	<line fill="none" stroke="#000000" stroke-width="3.125" x1="41.888" y1="351.332" x2="27.61" y2="357.688"/>
	<line fill="none" stroke="#000000" stroke-width="3.125" x1="33.096" y1="328.43" x2="18.237" y2="333.258"/>
	<line fill="none" stroke="#000000" stroke-width="3.125" x1="26.747" y1="304.727" x2="11.466" y2="307.982"/>
	<line fill="none" stroke="#000000" stroke-width="3.125" x1="22.911" y1="280.502" x2="7.367" y2="282.127"/>
	<text transform="matrix(1 0 0 1 59.8125 255.999)" font-family="'Arial-BoldMT'" font-size="31.25">9</text>
	<line fill="none" stroke="#000000" stroke-width="3.125" x1="37.25" y1="256" x2="6" y2="256"/>
	<line fill="none" stroke="#000000" stroke-width="3.125" x1="22.911" y1="231.499" x2="7.367" y2="229.868"/>
	<line fill="none" stroke="#000000" stroke-width="3.125" x1="26.747" y1="207.273" x2="11.466" y2="204.023"/>
	<line fill="none" stroke="#000000" stroke-width="3.125" x1="33.096" y1="183.576" x2="18.237" y2="178.743"/>
	<line fill="none" stroke="#000000" stroke-width="3.125" x1="41.888" y1="160.668" x2="27.61" y2="154.313"/>
	<text transform="matrix(1 0 0 1 76.2393 162.249)" font-family="'Arial-BoldMT'" font-size="31.25">10</text>
	<line fill="none" stroke="#000000" stroke-width="3.125" x1="66.557" y1="146.625" x2="39.495" y2="131"/>
	<line fill="none" stroke="#000000" stroke-width="3.125" x1="66.389" y1="118.236" x2="53.743" y2="109.054"/>
	<line fill="none" stroke="#000000" stroke-width="3.125" x1="81.823" y1="99.17" x2="70.214" y2="88.716"/>
	<line fill="none" stroke="#000000" stroke-width="3.125" x1="99.17" y1="81.823" x2="88.716" y2="70.214"/>
	<line fill="none" stroke="#000000" stroke-width="3.125" x1="118.236" y1="66.389" x2="109.055" y2="53.743"/>
	<text transform="matrix(1 0 0 1 145.7344 93.6191)" font-family="'Arial-BoldMT'" font-size="31.25">11</text>
	<line fill="none" stroke="#000000" stroke-width="3.125" x1="146.625" y1="66.557" x2="131" y2="39.495"/>
	<line fill="none" stroke="#000000" stroke-width="3.125" x1="160.668" y1="41.888" x2="154.313" y2="27.61"/>
	<line fill="none" stroke="#000000" stroke-width="3.125" x1="183.576" y1="33.097" x2="178.743" y2="18.237"/>
	<line fill="none" stroke="#000000" stroke-width="3.125" x1="207.273" y1="26.747" x2="204.023" y2="11.466"/>
	<line fill="none" stroke="#000000" stroke-width="3.125" x1="231.499" y1="22.911" x2="229.868" y2="7.367"/>
	<text transform="matrix(1 0 0 1 238.6191 68.499)" font-family="'Arial-BoldMT'" font-size="31.25">12</text>
	<line fill="none" stroke="#000000" stroke-width="3.125" x1="256" y1="37.25" x2="256" y2="6"/>
	<line fill="none" stroke="#000000" stroke-width="3.125" x1="280.502" y1="22.911" x2="282.127" y2="7.367"/>
	<line fill="none" stroke="#000000" stroke-width="3.125" x1="304.727" y1="26.747" x2="307.982" y2="11.466"/>
	<line fill="none" stroke="#000000" stroke-width="3.125" x1="328.43" y1="33.097" x2="333.258" y2="18.237"/>
	<line fill="none" stroke="#000000" stroke-width="3.125" x1="351.332" y1="41.888" x2="357.688" y2="27.61"/>
</g>
</svg>
