<?xml version="1.0" encoding="utf-8"?>
<!-- Generator: Adobe Illustrator 16.0.0, SVG Export Plug-In . SVG Version: 6.00 Build 0)  -->
<!DOCTYPE svg PUBLIC "-//W3C//DTD SVG 1.1//EN" "http://www.w3.org/Graphics/SVG/1.1/DTD/svg11.dtd">
<svg version="1.1" id="Layer_1" xmlns="http://www.w3.org/2000/svg" xmlns:xlink="http://www.w3.org/1999/xlink" x="0px" y="0px"
	 width="200px" height="200px" viewBox="0 0 200 200" enable-background="new 0 0 200 200" xml:space="preserve">
<path fill-rule="evenodd" clip-rule="evenodd" fill="#FFFFFF" d="M99.692,199.944C43.215,198.995-1.117,153.668,0.021,98.036
	C1.163,42.245,46.854-1.481,103.454,0.098c55.085,1.537,97.458,47.347,96.531,101.699C199.082,154.717,156.303,199.7,99.692,199.944
	z M47.671,87.245c0.295,11.581,8.958,16.428,18.054,21.799c-3.543,0.437-6.221,0.766-9.124,1.123
	c3.667,9.241,11.735,11.997,19.724,15.132c-8.739,7.114-18.558,10.307-29.737,10.635c0.653,0.857,0.826,1.225,1.114,1.438
	c0.82,0.604,1.67,1.175,2.539,1.708c7.934,4.855,16.728,6.817,25.857,7.386c14.046,0.872,26.195-4.621,37.708-11.834
	c20.898-13.099,31.063-32.04,30.674-56.726c-0.021-1.271,1.157-2.817,2.192-3.798c2.319-2.2,4.9-4.125,7.375-6.162
	c-0.193-0.249-0.387-0.497-0.58-0.745c-3.215,0.243-6.43,0.486-9.646,0.73c3.199-3.678,7.062-6.042,7.849-11.21
	c-3.248,1.137-5.969,2.178-8.747,3.038c-2.806,0.868-5.09,0.583-7.512-1.796c-3.884-3.816-9.029-5.229-14.471-4.635
	c-12.646,1.383-20.041,9.119-21.607,22.357c-0.235,1.979-0.449,3.959-0.666,5.871c-19.489-0.576-34.87-8.882-47.333-23.098
	c-5.971,9.095-3.646,19.623,5.896,30.297C54.229,88.28,51.229,87.807,47.671,87.245z"/>
</svg>
