<?xml version="1.0" encoding="utf-8"?>
<!-- Generator: Adobe Illustrator 16.0.0, SVG Export Plug-In . SVG Version: 6.00 Build 0)  -->
<!DOCTYPE svg PUBLIC "-//W3C//DTD SVG 1.1//EN" "http://www.w3.org/Graphics/SVG/1.1/DTD/svg11.dtd">
<svg version="1.1" id="Layer_1" xmlns="http://www.w3.org/2000/svg" xmlns:xlink="http://www.w3.org/1999/xlink" x="0px" y="0px"
	 width="200px" height="200px" viewBox="0 0 200 200" enable-background="new 0 0 200 200" xml:space="preserve">
<path fill-rule="evenodd" clip-rule="evenodd" fill="#FFFFFF" d="M0,100.141C0.003,45.119,44.556-0.101,98.691-0.028
	C155.236,0.048,199.946,44.106,200,99.804c0.054,55.328-44.699,100.262-99.818,100.224C44.727,199.991-0.005,155.391,0,100.141z
	 M109.584,138.012c0-1.847,0-3.234,0-4.622c0-11.754-0.024-23.509,0.008-35.263c0.021-7.358,5.548-12.737,12.937-12.68
	c6.698,0.052,11.421,5.233,11.44,12.66c0.031,11.882,0.009,23.764,0.009,35.648c0,1.356,0,2.715,0,4.21c7.619,0,14.697,0,22.167,0
	c0-6.606,0.081-12.966-0.02-19.321c-0.148-9.313,0.208-18.694-0.819-27.916c-1.182-10.599-6.463-18.909-17.559-21.765
	c-8.249-2.124-20.337-1.205-27.07,10.08c-0.07,0.117-0.447,0.051-1.109,0.105c0-3.013,0-5.997,0-9.211c-7.63,0-14.834,0-22.213,0
	c0,22.805,0,45.442,0,68.075C94.783,138.012,101.901,138.012,109.584,138.012z M74.32,69.916c-7.705,0-15.156,0-22.84,0
	c0,22.777,0,45.303,0,68.074c7.706,0,15.164,0,22.84,0C74.32,115.215,74.32,92.68,74.32,69.916z M62.677,60.445
	c6.898,0.023,12.729-5.283,12.807-11.654c0.081-6.498-5.866-12.124-12.819-12.126c-6.772-0.004-12.454,5.445-12.46,11.95
	C50.196,55.198,55.704,60.421,62.677,60.445z"/>
</svg>
