<?xml version="1.0" encoding="utf-8"?>
<!-- Generator: Adobe Illustrator 16.0.0, SVG Export Plug-In . SVG Version: 6.00 Build 0)  -->
<!DOCTYPE svg PUBLIC "-//W3C//DTD SVG 1.1//EN" "http://www.w3.org/Graphics/SVG/1.1/DTD/svg11.dtd">
<svg version="1.1" id="Layer_1" xmlns="http://www.w3.org/2000/svg" xmlns:xlink="http://www.w3.org/1999/xlink" x="0px" y="0px"
	 width="200px" height="200px" viewBox="0 0 200 200" enable-background="new 0 0 200 200" xml:space="preserve">
<path fill-rule="evenodd" clip-rule="evenodd" fill="#FFFFFF" d="M0.021,102.095C-1.097,47.441,42.867,1.075,96.768,0.06
	c56.604-1.066,102.131,42.237,103.214,98.173c1.068,55.215-43.007,100.686-98.588,101.709
	C46.885,200.946,1.139,156.792,0.021,102.095z M100.801,138.132c0.003,0.358,0.007,0.716,0.01,1.073
	c11.989-0.403,23.985-0.646,35.965-1.256c11.622-0.591,16.963-4.978,17.566-16.493c0.766-14.612,0.656-29.326-0.1-43.943
	c-0.531-10.281-6.05-15.05-16.473-15.407c-17.976-0.617-35.968-0.869-53.954-0.963c-7.901-0.042-15.816,0.543-23.708,1.09
	c-7.018,0.486-11.6,4.275-13.439,11.113c-0.627,2.331-1.275,4.748-1.308,7.133c-0.166,12.492-0.6,25.007-0.058,37.476
	c0.651,14.97,5.432,19.571,20.285,20.095C77.312,138.463,89.063,138.132,100.801,138.132z"/>
<path fill-rule="evenodd" clip-rule="evenodd" fill="#FFFFFF" d="M84.914,115.684c0-10.688,0-20.598,0-31.367
	c10.027,5.205,19.645,10.196,30.172,15.661C104.797,105.333,95.203,110.328,84.914,115.684z"/>
</svg>
