<?xml version="1.0" encoding="utf-8"?>
<!-- Generator: Adobe Illustrator 16.0.0, SVG Export Plug-In . SVG Version: 6.00 Build 0)  -->
<!DOCTYPE svg PUBLIC "-//W3C//DTD SVG 1.1//EN" "http://www.w3.org/Graphics/SVG/1.1/DTD/svg11.dtd">
<svg version="1.1" id="Layer_1" xmlns="http://www.w3.org/2000/svg" xmlns:xlink="http://www.w3.org/1999/xlink" x="0px" y="0px"
	 width="200px" height="200px" viewBox="0 0 200 200" enable-background="new 0 0 200 200" xml:space="preserve">
<path fill-rule="evenodd" clip-rule="evenodd" fill="#FFFFFF" d="M99.719,200.084C44.037,199.933-0.194,154.923,0.001,98.612
	c0.19-54.935,45.414-98.86,101.613-98.696c53.97,0.158,98.527,45.632,98.386,100.408C199.857,155.521,154.91,200.233,99.719,200.084
	z M100.902,162.223c0.006-0.346,0.012-0.692,0.018-1.038c9.32,0,18.652,0.333,27.955-0.067c21.045-0.907,34.376-14.028,34.931-35
	c0.496-18.76,0.43-37.553-0.051-56.314c-0.492-19.214-14.507-33.226-33.812-33.72c-19.143-0.491-38.316-0.479-57.46,0.001
	c-18.971,0.476-32.979,14.049-33.645,33.051c-0.682,19.518-0.646,39.094,0.002,58.614c0.596,17.964,11.705,30.216,29.58,32.735
	C79.117,161.993,90.066,161.704,100.902,162.223z"/>
<path fill-rule="evenodd" clip-rule="evenodd" fill="#FFFFFF" d="M99.615,151.355c-10.084,0.005-20.204,0.546-30.24-0.135
	c-11.899-0.808-20.124-8.575-20.517-20.428c-0.676-20.396-0.625-40.848,0.048-61.246c0.382-11.597,8.567-19.595,20.245-20.251
	c15.796-0.887,31.653-0.797,47.484-0.859c5.462-0.021,11.033,0.224,16.367,1.287c10.458,2.085,16.875,9.22,17.776,19.786
	c0.726,8.509,0.86,17.089,0.844,25.636c-0.024,11.746-0.017,23.518-0.801,35.225c-0.808,12.074-8.56,19.996-20.589,20.834
	C120.074,151.911,109.825,151.351,99.615,151.355z M99.631,132.604c17.911-0.002,32.647-14.604,32.606-32.308
	c-0.04-17.545-14.751-32.429-32.128-32.505c-17.996-0.08-32.753,14.621-32.729,32.606C67.402,118.049,81.981,132.606,99.631,132.604
	z M133.979,59.107c-4.071-0.235-7.481,2.717-7.784,6.738c-0.324,4.304,2.671,7.778,6.896,7.996c4.122,0.212,7.528-2.716,7.823-6.725
	C141.224,62.895,138.152,59.348,133.979,59.107z"/>
</svg>
