<?xml version="1.0" encoding="utf-8"?>
<!-- Generator: Adobe Illustrator 26.0.1, SVG Export Plug-In . SVG Version: 6.00 Build 0)  -->
<svg version="1.1" id="Layer_1" xmlns="http://www.w3.org/2000/svg" xmlns:xlink="http://www.w3.org/1999/xlink" x="0px" y="0px"
	 viewBox="0 0 775.3 266.8" style="enable-background:new 0 0 775.3 266.8;" xml:space="preserve">
<g id="ptILvj_00000088833769615409498350000009464344774045346478_">
	<g>
		<path d="M395.3,146.1c-0.6-0.6-1.3-1.1-1.9-1.7c-0.1-1.1,0.5-1.4,1.4-1.4c3.5,0,6.9-0.1,10.4,0c1.2,0,2.4,0.4,3.5,1.5
			c-0.9,0.4-1.7,0.8-2.5,1.1c0,0.1,0,0.3,0,0.4c1,0.2,2,0.3,2.8,0.5c0.1,3.1,0.2,6.2,0.2,9.3c0,8,0,16,0,24
			c0.1,19.9,0.1,39.7,0.2,59.6c0,0.7-0.5,1.7,1.1,1.9c0-10,0-19.9,0-30c0.7-0.5,1.3-0.9,1.8-1.2c0.2-10.2,0.3-20.2,0.5-30
			c0.5-0.8,0.9-1.4,1.4-2.2c0.4,0.5,0.7,0.9,1.2,1.5c3.3,0,6.7,0,10.2,0c0.2-0.4,0.3-0.8,0.5-1.4c1-0.1,2.1-0.2,3.1-0.3
			c0.5,0.7,0.9,1.3,1.5,2.2c0.3-1.2,0.5-1.9,0.8-3.1c0.8,1,1.4,1.7,2.1,2.6c0,0,0.4,0.1,0.7,0.2c0.1,0.2,0.2,0.4,0.2,0.6
			c0,0.3,0,0.6,0,0.9c0.1,15.6,0.2,31.1,0.3,46.7c0,3.3,0,6.7,0,10.2c1,0,1.9,0,3,0c0.1-1.3,0.2-2.6,0.2-4c0.9-0.1,1.7-0.1,2.7-0.2
			c0-0.6,0.1-1.1,0.1-1.6c0-12.7,0-25.4,0-38c0-1.5,0.3-3.1,0.4-4.8c2.4,0,4.6,0,6.8,0c0.2-1,0.4-1.8,0.6-2.5
			c2.9,0.4,5.6,0.7,8.2,1.1c1.5,2.4,1,5.1,1.1,7.6c0,8.7,0,17.4,0,26.3c0.3-1,0.6-1.8,0.9-2.6c0.2,0,0.3,0,0.5,0
			c0.4,1.5,0.8,3,1.1,4.5c0.1,0,0.2,0,0.4,0c0-6,0.3-11.9-0.3-18c1.2-0.1,2.1-0.1,3.2-0.2c-0.1-0.3-0.3-0.6-0.5-1
			c0.5-0.1,0.9-0.3,1.3-0.4c0.5,0.4,0.9,0.8,1.3,1.1c0.1,0,0.2-0.1,0.2-0.1c-0.1-0.2-0.1-0.5-0.3-0.9c0.5-0.1,1-0.1,1.8-0.2
			c-0.2,0.6-0.3,0.9-0.5,1.4c3.7,0.2,7.3,0.5,11.2,0.7c0,9.2,0,18.4,0,27.6c0.7,0.2,1.1,0.3,1.6,0.5c0.1,1.3,0.1,2.5,0.2,3.8
			c0.4,0.1,0.7,0.1,1.2,0.2c0-7.7,0-15.3,0-23.1c1.3-0.1,2.4-0.1,3.8-0.2c0-9.8,0-19.6,0-29.6c1.5,0,2.8,0,4.3,0
			c0.1,0.2,0.4,0.5,0.8,1c1.4,0,3,0,4.6,0c1.5,0,3,0.1,4.5,0.2c0.3,0.5,0.5,0.9,0.7,1.4c1.7,0,3.4,0,5.3,0c0,4.6,0,9.1,0,13.7
			c1,0,1.7,0,2.6,0c0-1.7,0-3.2,0-4.7c0.2-8.4,0.4-16.9,0.7-25.5c0.2-0.1,0.6-0.4,1.2-0.7c0-0.6,0-1.4,0-2.1
			c0.1-1.1-0.1-2.1,0.6-3.2c0.5-0.9,0.1-2.2,0.1-3.6c5.1,0,10.1,0,15.2,0c0.1,1.1,0.1,2.2,0.2,3.4c1.4,1.6,0.4,3.7,0.8,5.6
			c0.3,0.1,0.7,0.3,1.3,0.5c0,0.6,0,1.3,0,2c0,6.6-0.1,13.2,0,19.9c0.1,7.7,0.3,15.5,0.5,23.2c0.1,1.7,0.4,3.5,0.6,5.3
			c0.6,0,1.1,0,1.9,0c0-8.4,0-16.8,0-25.2c0.8-0.2,1.4-0.4,2.1-0.6c0.1-1,0.2-1.9,0.2-3.1c1,0,1.9,0,2.8,0c-0.1,0.1-0.2,0.2-0.3,0.3
			c0.6,0.7,1.2,1.4,1.8,2.1c0.2-0.2,0.4-0.4,0.5-0.5c0.1,0.4,0.2,0.8,0.3,1.3c0.5,0,1,0,1.5,0c0.2-0.4,0.4-0.8,0.5-1.1
			c1.3-0.7,1.5,0.4,1.9,1.3c1.9,0,3.8,0,5.6,0c0,0.2,0.1,0.3,0.1,0.5c-0.6,0.3-1.3,0.5-1.9,0.8c-0.5-0.1-1-0.3-1.6-0.4
			c-0.6,0.9-0.6,1.7,0,2.5c-0.1,0.3-0.3,0.5-0.3,0.7c1.3,0.3,2.5,0.7,3.8,1c0,0.2,0,0.3,0,0.5c-0.8,0.3-1.6,0.6-2.5,0.9
			c-0.2-0.1-0.6-0.3-1.2-0.5c-0.1,1.4-0.2,2.5-0.3,3.7c1.3,0.3,2.8-0.4,4,1c-1,0.2-1.9,0.3-2.8,0.5c-0.3,0-0.6-0.1-0.9-0.1
			c-0.5,1.9-0.4,2,1.3,2.1c0.8,0.7,1.6,1.5,2.4,2.3c-0.6,0.4-1,0.7-1.7,1.2c0.2,1,0.4,2.1,0.6,3.2c1.4,0.1,2.6,0.2,4.3,0.2
			c-0.6,0.5-0.9,0.8-1.3,1.1c0,1,0,2.1,0,3.3c0.3,0.2,0.6,0.5,1,0.7c-0.4,0.4-0.8,0.8-1.1,1.2c0.1,0.1,0.2,0.3,0.2,0.4
			c0.6-0.2,1.3-0.3,2-0.5c0.1-1.8,0.2-3.5,0.2-5.3c0.3-0.3,0.6-0.5,0.9-0.8c0-3.1,0-6.3,0-9.5c0.6-0.3,1.2-0.6,2-1
			c-0.1-0.6-0.2-1.1-0.3-1.7c0.6-0.8,1.2-1.6,1.8-2.5c0.1,0,0.2,0.1,0.3,0.1c0-5.7,0-11.3,0-17.1c1.5,0,2.9,0,4.1,0
			c0.3-1.1,0.6-2,0.9-3c1.5,0,2.8,0,4.4,0c0.2,0.9,0.5,1.8,0.7,2.8c0.6,0,1.3,0,1.9,0c0.2-0.7,0.3-1.3,0.5-2c0.1,0,0.3,0,0.4,0
			c0.2,0.6,0.4,1.2,0.6,1.9c0.6,0,1.3,0,2.2,0c0,2.5,0,4.8,0,7.2c0,8.3,0,16.5,0,24.8c0,0.8,0.1,1.8,0.5,2.5c0.8,1.2,1,2.4,1,3.8
			c0,3.8,0,7.6,0,11.4c0.5,0.2,0.9,0.5,1.3,0.7c0.5,1.1-0.3,2.5,1.1,3.5c0.1-0.6,0.2-1.2,0.2-1.9c0-5.4,0-10.9,0-16.3
			c0-15.4,0-30.8,0-46.2c0-8.4,0-16.8,0.1-25.2c0-0.6,0-1.1,0-1.7c1.9-0.2,3.6-0.3,5.4-0.5c0.1-0.5,0.2-1.1,0.4-1.7
			c0.5-0.1,1-0.1,1.7-0.2c0.1-8.1,0.1-16.2-0.8-24.5c0.9-0.1,1.4-0.1,2.3-0.2c-0.2,2.9-0.4,5.5-0.6,8.1c0,0.2,0,0.4,0,0.6
			c0,5.2,0,10.5,0,15.7c0,0.1,0.1,0.2,0.2,0.4c2.6,0,5.3,0,8.1,0c0.1-0.4,0.2-0.8,0.2-1.2c0-4.7,0.2-9.5-0.1-14.2
			c-0.2-2.3-0.6-4.6-0.5-7c0-0.7,0-1.4,0-2.2c0.6-0.1,1.1-0.2,1.9-0.3c-0.2,8.4-0.3,16.6-0.5,24.9c0.7,0.1,1.2,0.2,1.8,0.3
			c0.1,0.5,0.2,1,0.4,1.7c1.6,0.2,3.3,0.3,5.2,0.5c0,16.7,0,33.5,0,50.6c1-0.8,1-0.8,1.2-3.5c0.2-0.2,0.4-0.5,0.7-0.8
			c0.2-0.2,0.3-0.5,0.5-0.8c2,0,3.8,0,5.8,0c0.4,0.5,0.8,1,1.1,1.5c0.4,1.2-0.5,2.8,1,3.7c1.7-0.9,0.5-2.5,0.9-3.6
			c0.4-0.5,0.9-1,1.4-1.6c1.9,0,3.9,0,5.8,0c0.4,0.6,0.8,1,1.2,1.6c0,0.8,0,1.8,0,2.9c0.4,0.2,0.8,0.5,1.1,0.7c0,1.2,0,2.1,0,3.1
			c0.4,0.3,0.7,0.5,1.2,0.9c0.1,5.6,0.3,11.2,0.4,16.9c0.4,0,0.7,0,1.2-0.1c0-0.7,0-1.3,0-1.9c0-6.5,0-13,0-19.5
			c0-0.8,0.3-1.6,0.8-2.4c0-5.4,0-10.7,0-16.1c0.4-0.3,0.8-0.6,1.2-1c0-1,0-2,0-3.1c0.8-0.1,1.6-0.3,2.5-0.4
			c0.1-1.7,0.2-3.4,0.4-5.2c0.6-0.2,1.2-0.3,2-0.5c0-1.2,0-2.5,0-3.7c0.5-0.3,1-0.5,1.5-0.8c0-0.6,0.1-1.2,0.2-2
			c0.8-0.1,1.5-0.2,2.2-0.3c0.5-0.7,1-1.4,1.4-1.9c0,0-0.3-0.1-0.6-0.2c0-1.2,0-2.4,0-3.7c-0.3-0.2-0.6-0.4-1-0.6c0-0.6,0-1.2,0-1.9
			c0.6-0.8,1.2-1.6,1.8-2.4c0.6,0.8,1.2,1.5,2,2.5c-0.7,2.5-1.3,5.2-0.6,8.2c0.7,0.1,1.5,0.3,2.4,0.4c0.1,0.6,0.1,1.2,0.2,1.9
			c0.4,0.2,0.9,0.5,1.4,0.9c0,1.2,0,2.5,0,3.8c0.7,0.2,1.3,0.3,2.1,0.5c0,1.8,0,3.5,0,5.2c1,0.2,1.8,0.4,2.6,0.5
			c0.1,1.2,0.1,2.2,0.1,3.2c0.3,0.2,0.7,0.5,1.1,0.8c0,5.4,0,10.7,0,16.1c0.1,0,0.2,0,0.4,0c0.1,0.9,0.4,1.9,0.4,2.8
			c0,13.1,0,26.2,0,39.4c0,0.7,0,1.4,0.3,2.1c0.9-3.1,0.2-6.4,0.7-9.6c1-0.1,1.9-0.2,3.2-0.3c0.2-2.3,0.4-4.6,0.6-6.8
			c0.1-1,0.2-2.1-0.5-3.1c-0.3-0.3-0.1-1-0.1-1.5c0-4.4,0-8.7,0-13.1c0-0.8,0.4-1.6,0.5-2.5c0.1-0.4,0.2-0.9,0-1.3
			c-1.1-2.7-0.4-5.4-0.4-8.1c0-0.7,0.3-1.4,0.5-2.3c3-0.7,6.1,0,9.2-0.2c1.5-1.6,3.6-0.4,5.5-1c0.1-0.2,0.2-0.5,0.2-0.7
			c0.6,0.4,1.2,0.9,1.7,1.3c2.2,0.1,4.4,0.2,6.6,0.3c1,3.7,0.7,7.3,0.5,11.2c0.4,0,1,0.1,1.8,0.2c0-10.3,0-20.4,0-30.7
			c1.2,0,2.3,0,3.4,0c0.3-0.5,0.5-0.9,0.7-1.3c2.5-0.3,5-0.6,7.6-0.9c0.4,0.3,1,0.6,1.6,0.9c0.6,0,1.3,0.1,2.1,0.1
			c0.2,0.3,0.5,0.7,0.8,1.2c1,0,2.1,0,3.3,0c0,10.3,0,20.5,0,30.7c1.1,0.3,2.2,0.5,3.5,0.8c0,3.9,0,7.8,0,11.8c1.1,0,2,0,3,0
			c0.3-1,0.6-2,0.8-3c0.1,0,0.2,0,0.2,0c0-3.6,0-7.3,0-10.9c0.4-0.5,0.7-0.9,1.1-1.5c4.4-1.1,8.9-0.6,13.5-0.6
			c1.6,0,2.3,0.5,3.5,1.7c0,3.2,0,6.4,0,9.6c0,0.8-0.2,1.6,0.7,2.2c0.2,0.1,0.1,0.7,0.1,1.1c0,7.8,0,15.6,0,23.4c0,3.8,0,7.5,0,11.3
			c0.4,0.4,0.7,0.7,1,0.9c0.1,0.7,0.3,1.3,0.4,1.9c0.2,0,0.3,0,0.5,0c0.1-0.6,0.3-1.2,0.3-1.8c0-5.7,0-11.4,0-17c0-0.7,0-1.5,0-2.2
			c0.8-0.2,1.3-0.3,2-0.5c0-2.6,0-5.2,0-7.8c0.5-0.3,0.8-0.5,1.4-0.8c0-10.4,0-20.9,0-31.6c1-0.1,1.7-0.2,2.5-0.2c0.8,0,1.6,0,2.5,0
			c0-1.2-0.6-2.5,0.9-3.3c7.5-0.5,8.8-0.5,10.4,0.7c0,0.8,0,1.6,0,2.6c0.8,0,1.6,0,2.4,0c0.7,0,1.5,0,2.3,0c0.1,0.7,0.3,1.2,0.3,1.6
			c0.1,5.9,0.2,11.8,0.3,17.8c0,3.9,0,7.8,0.2,11.7c0-0.3,0-0.6,0-0.9c-0.4-3.1,0.4-5.9,2-8.5c0.4-0.7,0.7-1.6,1-2.4
			c3.5,0,7.1,0,10.3,0c1,2,1.8,3.6,2.6,5.3c0.3,0.7,0.5,1.4,0.6,2.1c0.1,2.6,0.1,5.2,0,7.8c0,1.9,0,3.8,0.8,5.5
			c0.3,0.6,0.3,1.3,0.3,2c0,3.4,0,6.8,0,10.3c0.7,0.1,1.2,0.2,1.9,0.4c0,5.5,0,10.9,0,16.5c0.9,0,1.6,0,2.2,0c0,2.9,0,5.8,0,8.7
			c-258.4,0-516.9,0-775.3,0c0-2.9,0-5.8,0-8.7c0.8,0.1,1.6,0.1,2.7,0.2c0-4.3,0-8.3,0-12.6c1.3-0.1,2.4-0.2,3.7-0.2
			c0-3.7,0-7.3,0-11c0.6-0.2,1-0.3,1.5-0.5c0-1.3,0-2.7,0-4.3c3,0,5.9,0,9.1,0c0-10.9,0-21.6,0-32.3c8.2,0,16.1,0,24.3,0
			c0.3,16.1-0.2,32,0.3,48.1c0.7-0.1,1-0.1,1.6-0.2c0-7.7,0-15.3,0-23c1.5-0.2,2.9-0.4,4.6-0.6c-0.6-0.3-0.8-0.4-1.1-0.6
			c0.2-1,0.3-2,0.5-3c0.5-0.1,1.1-0.3,1.6-0.4c0-0.3,0.1-0.5,0.1-0.8c-0.6-0.2-1.1-0.3-2.1-0.6c0.8-0.3,1.2-0.3,1.6-0.5
			c0.4-0.2,0.6-0.5,1-0.8c0.7,0,1.5,0,2.3,0c0.4,0.4,0.8,0.7,1.3,1.1c0.3-0.3,0.6-0.5,1-0.8c0,0.4,0,0.7,0,1.1
			c-0.5,0.2-1,0.4-1.5,0.5c-0.4,1.4,0.9,1,1.4,1.6c0.1,0.8,0.2,1.7,0.3,2.8c-0.1,0.1-0.5,0.2-0.8,0.4c0,0.1,0,0.2,0,0.3
			c1,0.1,1.9,0.2,3.2,0.3c-0.3-0.4-0.4-0.6-0.6-0.9c0.7-0.8,1-1.7,0-2.6c0.8-1.2,0.8-1.7-0.1-3c0.9-1.1,0.9-1.3,0-2.4
			c1-1.4,1-2.2,0-3.4c0.9-1.4,0.9-2.1,0.1-3.2c0.2-0.6,0.5-1.1,0.5-1.7c0-0.4-0.3-0.8-0.6-1.3c1-0.9,0.9-1.8-0.1-2.8
			c1.1-0.9,0.9-1.7,0-2.4c1-1.3,1-2.2,0-3.5c0.2-0.2,0.4-0.5,0.7-0.9c-0.2-0.4-0.5-0.9-0.6-1c0.4-1.8,0.8-3.4,1.3-5.2
			c0.6,0,1.4-0.1,2.3-0.2c0.8-0.5,1.7-1.1,2.7-1.7c0-1,0-1.9,0-2.9c0.1,0,0.1,0,0.2,0c0,0.9,0,1.8,0,2.7c1.3,1.3,2.6,2.1,4.4,2
			c1.9-0.1,3.9,0,5.9,0c0.5,1.7,0.9,3.3,1.4,5.2c-0.1,0.1-0.3,0.6-0.6,1.2c0.3,0.3,0.5,0.5,0.7,0.6c-0.2,0.6-0.5,1.2-0.6,1.8
			c0,0.6,0.3,1.2,0.5,2c-0.6,0.5-1,1.4,0.2,2.2c-0.8,0.9-1.1,1.9,0,2.9c-0.7,0.9-1.1,1.7-0.2,2.6c-0.2,0.7-0.5,1.3-0.5,1.9
			c0,0.5,0.3,1.1,0.5,1.8c-0.9,1.2-0.8,1.9,0.2,3.3c-0.9,0.8-1.1,1.7,0,2.5c-0.9,1.3-0.9,1.8,0,2.9c-0.8,0.8-1,1.7-0.1,2.6
			c-0.6,0.9-1.1,1.9,0.1,2.7c-0.9,1.4-0.9,2.3,0.1,3.5c-0.6,0.8-1.3,1.7,0,2.5c-0.9,1.1-1,1.6-0.1,2.9c-0.9,0.9-0.9,1.8,0,2.6
			c-0.9,1.5-1,1.5,0,3.1c-0.9,1.2-0.9,2.2-0.1,3.5c-0.9,0.9-0.9,1.7,0,2.4c-0.2,0.8-0.5,1.4-0.7,2.2c0.7,0,1.2,0.1,1.9,0.1
			c0-3.1,0-6.1,0-9.1c0.6-0.2,1.1-0.4,1.3-0.4c0-10.2,0-20.2,0-30.2c0-0.4,0.3-0.8,0.6-1.4c5.2,0,10.4,0,15.9,0
			c0.2,1.1,0.5,2.1,0.5,3c0,3.7,0,7.3,0,11c0,4.3,0,8.7,0,13c0,1.4,0,2.9,0,4.4c0.4,0.2,0.7,0.4,1.1,0.7c0.3,2.9-0.1,5.8,0.3,8.9
			c0.9-0.9,0.9-0.9,0.9-4.1c0-1.4,0-2.8,0-4.3c0.8-0.1,1.5-0.2,2.5-0.3c0-2,0-4,0-6c1-0.2,1.7-0.3,2.6-0.4c0-1,0-2,0-3
			c2.5-0.8,4.9-0.1,7.4-0.2c2.4-0.1,4.9,0,7.3-0.3c1.4,0.1,2.8,0.3,4.5,0.4c-0.1,1.1-0.2,2-0.3,3.1c0.7,0.1,1.5,0.1,2.6,0.2
			c0,2.1,0,4.1,0,6.3c1,0,1.8,0,2.7,0c0,3.9,0,7.8,0,11.7c0.6,0,1.1,0,1.7,0c0-3.9,0-7.8,0-11.6c-0.1,0-0.1,0-0.2,0
			c0.3-1.2,0.5-2.4,0.8-3.7c0.9-0.1,1.7-0.1,2.7-0.2c1.1-0.7,2.4-1.5,3.5-2.4c5.8-4.5,11.9-8.4,18.5-11.7c7.2-3.6,14.6-6.4,22.5-7.8
			c11.2-2,22.2-0.7,32.9,3.1c7.4,2.7,14.4,6.3,21,10.6c3.4,2.3,6.8,4.6,10.1,7c1.3,1,2.6,1.4,4.3,1.1c0.3,1.4,0.5,2.6,0.6,3.3
			c-0.1,1.5-0.2,2.5-0.3,3.7c0.9,0,1.6,0,2.5,0c0-0.7,0.1-1.4,0.1-2.2c1.5,0,2.9,0,4.4,0c0.2-1.5,0.4-3,0.5-4.4
			c0.3-4.6,0.5-9.2,0.8-13.8c0.4-6.3,1-12.6,1.4-18.8c0.2-2.5,0.3-5,0.4-7.5c0.2-3.3,0.5-6.5,0.6-9.8c0.1-3.5,0.1-7.1,0.2-10.6
			c0.3-10.8,0.5-21.6,0.8-32.3c0.1-4.8,0.3-9.6,0.4-14.4c0.1-5.3,0.2-10.6,0.4-15.9c0.1-2.5,0.2-4.9,0.3-7.4c0-0.6,0-1.2,0-1.9
			c-2-0.7-4.4,0-6-2c-0.7-1.3,0.1-2.5,1.3-3.7c-0.7-0.5-1.3-0.9-2.1-1.4c0.1-0.8,0.1-1.8,0.2-3c-0.1-0.5-0.4-1.2-0.6-2.1
			c0.7-0.2,1.3-0.3,1.7-0.5c1.5-1.2,1.3-2.9,1.4-4.7c1.3-0.3,2.6-0.7,4.2-1.1c-0.2-1.8-0.3-3.6-0.5-5.5c0.6-0.3,1-0.5,1.6-0.8
			c0-0.7,0.1-1.5,0.1-2.2c0-7.7,0-15.4,0-23.1c0-0.7,0-1.5-0.3-2c-1.1-1.3-0.6-2.3,0.3-3.4c0.2-0.2,0.4-0.5,0.7-0.9
			c0-5,0-10.2,0-15.4c0-0.9,0.4-1.8,0.5-2.7c0.1-0.4,0.1-0.9,0.1-1.3c0.2-2.3-0.5-4.6,0.7-6.8c0.2-0.3,0-0.9,0-1.3
			c0-4.2,0-8.3,0-12.5c0-1.9,0.2-3.8,0.3-5.7c0.1,0,0.3,0,0.4,0c0.1,0.2,0.2,0.5,0.2,0.7c0.1,5.3,0.3,10.7,0.4,16
			c0,0.6-0.1,1.1,0,1.7c0.1,0.9,0.3,1.8,0.7,2.6c0,0.6,0,1.1,0,1.7c0.2,3.1,0.4,6.2,0.5,9.3c0.1,3.2,0,6.3,0,9.5c0,0.4,0,0.9,0,1.3
			c-0.2,1.9,0.1,3.6,1.9,5c-0.4,0.9-0.7,1.7-1,2.5c-0.1,0-0.1,0-0.2-0.1c0,8.8,0,17.6,0,26.7c0.5,0.3,1,0.6,1.8,1.2
			c-0.2,1.7-0.3,3.5-0.5,5.4c1.5,0.4,2.8,0.7,4.1,1.1c0.3,1.8-0.4,3.8,1.7,5c0.2,0,0.6-0.1,1.3-0.2c-0.1,1-0.3,1.9-0.4,2.9
			c0.1,0.8,0.2,1.8,0.3,2.7c-0.7,0.5-1.4,0.8-2.1,1.3c0.7,1.2,1.7,2.2,1,4c-1.2,1.8-3.5,1.3-5.7,1.6c0,3.3,0,6.5,0,9.7
			c0,2.8,0.2,5.7,0.3,8.5c0.2,8.4,0.5,16.9,0.7,25.3c0.2,8.3,0.3,16.6,0.5,25c0.1,4.8,0.1,9.6,0.4,14.4c0.2,4.8,0.7,9.5,1,14.3
			c0.3,4.5,0.5,9.1,0.9,13.6c0.3,4.5,0.7,8.9,1,13.4c0.3,4.3,0.6,8.7,0.9,13c0.1,1.3,0,2.7,1.3,3.5c0.1-0.1,0.3-0.1,0.3-0.2
			c0.2-2.8,0.5-5.6,0.5-8.5c0.1-8.5,0-17,0-25.6c0-0.7,0-1.4,0-2.1c0.3-0.3,0.6-0.6,0.7-0.7c0.9-3,1.6-5.7,2.4-8.3
			c1.6-0.9,13.8-0.9,15.2,0c0.5,1.4,1,2.7,1.4,4.1c0.4,1.4,0.6,2.7,1,4.2c0.2,0.2,0.5,0.4,0.9,0.8c0,8.4,0,16.8,0,25.4
			c0.7,0.1,1.2,0.1,1.9,0.1c0-3.3,0-6.4,0-9.6c0.7-0.1,1.2-0.2,1.9-0.4c0-14.1,0-28.2,0-42.6c4.4,0,8.6,0,12.9,0
			c0.2-0.5,0.3-0.9,0.4-1.4c1,0,2,0,3.1,0c0.2,0.4,0.4,0.8,0.6,1.3c0.9,0.1,1.7,0.2,2.9,0.3c0,14.2,0,28.3,0,42.4c0.2,0,0.4,0,0.6,0
			c0.4-4.5,0-9,0.2-13.4c0.5-1.2,1.2-2.3,1.3-3.4c0.2-1.8,1.1-3.3,1.6-5c0.5-1.7,1.1-3.3,1.6-5.1c1.7,0,3.8,0,5.5,0
			c1.5,4.4,2.9,8.9,4.7,14.2c0,5.8,0,12.5,0,19.5c0.8,0,1.4-0.1,2,0c0.6,0.1,1.1,0.4,1.5,0.5c0,2.5,0,4.6,0,6.8
			c0.7,0.6,1.3,1.2,1.9,1.8c0-6.5,0-13.1,0-19.9c0.7-0.6,1.5-1.3,2.5-2c0.9,0,1.9,0,2.9,0c0-3.6,0-7.1,0-10.8
			c0.8-0.1,1.7-0.2,2.8-0.3c-0.1-0.6-0.2-1.1-0.4-2.1c1.1,1.3,1.8,2.6,3.8,2c-0.3-0.7-0.7-1.3-1.1-2.1c4.3,0,8.5,0,12.9,0
			c-0.3,0.8-0.5,1.5-0.7,2.1c0.1,0.1,0.2,0.1,0.3,0.2c0.3-0.2,0.6-0.4,0.9-0.5c0.6-0.2,1.3-0.4,1.9-0.3c0.9,0.2,1.8,0.7,2.7,1.1
			c0,9,0,18.1,0,27.5c0.1,0.2,0.5,0.5,0.7,0.9c0.4,1.2-0.2,2.5,0.9,3.5c0-21.5,0-43,0-64.2c0.5-0.6,0.8-1,1.2-1.5
			c-0.4-0.3-0.7-0.6-1.1-0.9c0.4-0.5,0.7-0.9,1.1-1.4c-0.3-0.4-0.6-0.7-1-1.2c0.3-0.3,0.6-0.5,1-0.9c-0.3-0.5-0.5-1-0.9-1.7
			c1.2-0.2,2.3-0.3,3.5-0.5c0-0.4-0.1-0.7-0.1-1.1c-0.3,0.1-0.6,0.1-0.8,0.2c-0.3-0.4-0.6-0.8-1.1-1.4c0.2-0.1,0.3-0.3,0.5-0.3
			c3.2,0,6.4,0.1,9.6,0.2c1.5,0.1,3.1,0.3,4.8,0.4c-0.1,0.8-0.2,1.4-0.4,2.1c0.8,0.2,1.5,0.3,2.5,0.5c-0.4,0.5-0.7,0.9-1.1,1.4
			c0.3,0.4,0.7,0.8,1.2,1.4c-0.5,0.2-0.9,0.5-1.3,0.7c0,0.2-0.1,0.4-0.1,0.6c0.5,0.2,1.1,0.4,1.6,0.5c0,0.2,0,0.5,0,0.7
			c-0.5,0.2-1.1,0.3-1.8,0.5c0.7,0.7,1,0.9,1.4,1.3c0,14.5,0,29,0,43.5c0.9,0.6,1.6,1.1,2.3,1.5c0,0.8,0,1.4,0,1.8
			c0.4,0.9,0.8,1.7,1.2,2.5c-0.1,0-0.2,0-0.3,0.1c0,2.2,0,4.5,0,6.9c0.8,0,1.6,0,2.7,0c0-0.8,0-1.6,0-2.3c0-22.8,0-45.7,0.1-68.5
			c0-2.4,0.3-4.8,0.3-7.2c0-1.4-0.2-2.8-0.3-4.2C393.5,146.4,394.4,146.2,395.3,146.1c0.7,0,1.4,0.1,2.3,0.2
			c-0.1-0.5-0.2-0.7-0.2-0.9c-0.6,0-1.2-0.1-1.7,0C395.5,145.4,395.4,145.8,395.3,146.1z M504.1,192.1c0.2,0,0.4,0.1,0.7,0.1
			c0.6-1.2,0.3-2.6,0.2-4.1c-0.7,0.1-1.2,0.1-2,0.2c0.5,0.7,0.8,1,1.2,1.5C504.1,190.5,504.1,191.3,504.1,192.1z M373.4,165
			c1.7-0.5,3.5,0.9,5.1-0.1c0-0.2,0-0.4,0-0.5c-1.7,0-3.4,0-5.2,0C373.3,164.5,373.3,164.7,373.4,165z M486.1,190.4
			c0.5-2.7,0.4-3.7-0.3-5.1C485.7,187.2,485.6,188.8,486.1,190.4z M402.1,145.5c-1.1,0-2,0-3,0C399.7,146.5,401.3,146.5,402.1,145.5
			z M382.2,164.4c-0.7,0-1.4,0-2.1,0c0,0.1,0,0.3-0.1,0.4c0.6,0.5,1.4,0.1,2.2,0.3C382.3,164.8,382.3,164.6,382.2,164.4z M404,145.3
			c0.1,0.5,0.1,0.7,0.2,1.1c0.6-0.2,1.2-0.4,1.7-0.5c0-0.1-0.1-0.3-0.1-0.4C405.2,145.4,404.7,145.4,404,145.3z M501.3,188.9
			c-0.4-1-0.9-0.9-1.5-0.5C499.9,189.4,500.5,189.1,501.3,188.9z"/>
		<path d="M572.6,179.6c0,1,0,2,0,3c0,0,0,0,0,0C572.6,181.6,572.6,180.6,572.6,179.6C572.6,179.6,572.6,179.6,572.6,179.6z"/>
	</g>
</g>
</svg>
